<svg aria-hidden="true" style="position: absolute; width: 0; height: 0; overflow: hidden;" version="1.1" xmlns="http://www.w3.org/2000/svg" xmlns:xlink="http://www.w3.org/1999/xlink">
<defs>
<symbol id="icon-hangouts" viewBox="0 0 32 32">
<path d="M15.994 0c-7.631 0-13.819 6.188-13.819 13.819 0 7.231 6.588 13.094 13.819 13.094v5.087c8.394-4.256 13.831-11.113 13.831-18.181 0-7.631-6.2-13.819-13.831-13.819zM14 16c0 1.656-0.894 3-2 3v-3h-4v-6h6v6zM24 16c0 1.656-0.894 3-2 3v-3h-4v-6h6v6z"></path>
</symbol>
<symbol id="icon-google-plus2" viewBox="0 0 32 32">
<path d="M29 0h-26c-1.65 0-3 1.35-3 3v26c0 1.65 1.35 3 3 3h26c1.65 0 3-1.35 3-3v-26c0-1.65-1.35-3-3-3zM12 24c-4.425 0-8-3.575-8-8s3.575-8 8-8c2.162 0 3.969 0.787 5.363 2.094l-2.175 2.088c-0.594-0.569-1.631-1.231-3.188-1.231-2.731 0-4.963 2.263-4.963 5.050s2.231 5.050 4.963 5.050c3.169 0 4.356-2.275 4.538-3.45h-4.537v-2.744h7.556c0.069 0.4 0.125 0.8 0.125 1.325 0 4.575-3.063 7.819-7.681 7.819zM28 16h-2v2h-2v-2h-2v-2h2v-2h2v2h2v2z"></path>
</symbol>
<symbol id="icon-google-plus3" viewBox="0 0 32 32">
<path d="M16 0c-8.838 0-16 7.162-16 16s7.162 16 16 16 16-7.163 16-16-7.163-16-16-16zM12 24c-4.425 0-8-3.575-8-8s3.575-8 8-8c2.162 0 3.969 0.787 5.363 2.094l-2.175 2.088c-0.594-0.569-1.631-1.231-3.188-1.231-2.731 0-4.963 2.263-4.963 5.050s2.231 5.050 4.963 5.050c3.169 0 4.356-2.275 4.538-3.45h-4.537v-2.744h7.556c0.069 0.4 0.125 0.8 0.125 1.325 0 4.575-3.063 7.819-7.681 7.819zM26 16v2h-2v-2h-2v-2h2v-2h2v2h2v2h-2z"></path>
</symbol>
<symbol id="icon-google-drive" viewBox="0 0 32 32">
<path d="M13.688 20l-5.769 10h18.144l5.769-10z"></path>
<path d="M31.012 18l-9.238-16h-11.55l9.238 16z"></path>
<path d="M9.069 4l-9.069 15.712 5.775 10 9.069-15.713z"></path>
</symbol>
</defs>
</svg>
